<mxfile host="Electron" modified="2023-10-23T21:13:16.234Z" agent="Mozilla/5.0 (Windows NT 10.0; Win64; x64) AppleWebKit/537.36 (KHTML, like Gecko) draw.io/22.0.3 Chrome/114.0.5735.289 Electron/25.8.4 Safari/537.36" etag="X3dRKFIuq2BkTCx_LQFn" version="22.0.3" type="device">
  <diagram name="Страница — 1" id="cdQRUl_pXXOK2aStwcji">
    <mxGraphModel dx="1036" dy="606" grid="1" gridSize="10" guides="1" tooltips="1" connect="1" arrows="1" fold="1" page="1" pageScale="1" pageWidth="827" pageHeight="1169" math="0" shadow="0">
      <root>
        <mxCell id="0" />
        <mxCell id="1" parent="0" />
        <mxCell id="4lRJeKL5pvIg2zQoeAeS-1" value="" style="endArrow=none;html=1;rounded=0;" parent="1" edge="1">
          <mxGeometry width="50" height="50" relative="1" as="geometry">
            <mxPoint x="260" y="560" as="sourcePoint" />
            <mxPoint x="260" y="70" as="targetPoint" />
          </mxGeometry>
        </mxCell>
        <mxCell id="4lRJeKL5pvIg2zQoeAeS-2" value="Source Layer" style="text;strokeColor=none;fillColor=none;html=1;fontSize=24;fontStyle=1;verticalAlign=middle;align=center;" parent="1" vertex="1">
          <mxGeometry x="90" y="70" width="100" height="40" as="geometry" />
        </mxCell>
        <mxCell id="4lRJeKL5pvIg2zQoeAeS-3" value="Storage Layer" style="text;strokeColor=none;fillColor=none;html=1;fontSize=24;fontStyle=1;verticalAlign=middle;align=center;" parent="1" vertex="1">
          <mxGeometry x="330" y="70" width="100" height="40" as="geometry" />
        </mxCell>
        <mxCell id="4lRJeKL5pvIg2zQoeAeS-4" style="edgeStyle=orthogonalEdgeStyle;rounded=0;orthogonalLoop=1;jettySize=auto;html=1;exitX=0.5;exitY=1;exitDx=0;exitDy=0;entryX=0.5;entryY=0.75;entryDx=0;entryDy=0;entryPerimeter=0;" parent="1" source="4lRJeKL5pvIg2zQoeAeS-3" target="4lRJeKL5pvIg2zQoeAeS-3" edge="1">
          <mxGeometry relative="1" as="geometry" />
        </mxCell>
        <mxCell id="4lRJeKL5pvIg2zQoeAeS-5" value="" style="endArrow=none;html=1;rounded=0;" parent="1" edge="1">
          <mxGeometry width="50" height="50" relative="1" as="geometry">
            <mxPoint x="500" y="560" as="sourcePoint" />
            <mxPoint x="500" y="70" as="targetPoint" />
          </mxGeometry>
        </mxCell>
        <mxCell id="4lRJeKL5pvIg2zQoeAeS-6" value="Busines&amp;nbsp;" style="text;strokeColor=none;fillColor=none;html=1;fontSize=24;fontStyle=1;verticalAlign=middle;align=center;" parent="1" vertex="1">
          <mxGeometry x="580" y="70" width="100" height="40" as="geometry" />
        </mxCell>
        <mxCell id="4lRJeKL5pvIg2zQoeAeS-7" value="" style="shape=cylinder3;whiteSpace=wrap;html=1;boundedLbl=1;backgroundOutline=1;size=15;" parent="1" vertex="1">
          <mxGeometry x="300" y="160" width="160" height="270" as="geometry" />
        </mxCell>
        <mxCell id="4lRJeKL5pvIg2zQoeAeS-8" value="Web Site" style="shape=cylinder3;whiteSpace=wrap;html=1;boundedLbl=1;backgroundOutline=1;size=15;" parent="1" vertex="1">
          <mxGeometry x="110" y="130" width="70" height="80" as="geometry" />
        </mxCell>
        <mxCell id="4lRJeKL5pvIg2zQoeAeS-9" value="WB architecture" style="text;strokeColor=none;fillColor=none;html=1;fontSize=24;fontStyle=1;verticalAlign=middle;align=center;" parent="1" vertex="1">
          <mxGeometry x="330" y="10" width="100" height="40" as="geometry" />
        </mxCell>
        <mxCell id="4lRJeKL5pvIg2zQoeAeS-12" style="edgeStyle=orthogonalEdgeStyle;rounded=0;orthogonalLoop=1;jettySize=auto;html=1;entryX=0;entryY=0;entryDx=0;entryDy=75;entryPerimeter=0;" parent="1" source="4lRJeKL5pvIg2zQoeAeS-10" target="4lRJeKL5pvIg2zQoeAeS-7" edge="1">
          <mxGeometry relative="1" as="geometry">
            <mxPoint x="200" y="280" as="targetPoint" />
          </mxGeometry>
        </mxCell>
        <mxCell id="4lRJeKL5pvIg2zQoeAeS-18" value="ETL" style="edgeLabel;html=1;align=center;verticalAlign=middle;resizable=0;points=[];" parent="4lRJeKL5pvIg2zQoeAeS-12" vertex="1" connectable="0">
          <mxGeometry x="-0.49" y="3" relative="1" as="geometry">
            <mxPoint x="59" y="-12" as="offset" />
          </mxGeometry>
        </mxCell>
        <mxCell id="4lRJeKL5pvIg2zQoeAeS-10" value="Stock" style="shape=cylinder3;whiteSpace=wrap;html=1;boundedLbl=1;backgroundOutline=1;size=15;" parent="1" vertex="1">
          <mxGeometry x="110" y="255" width="70" height="80" as="geometry" />
        </mxCell>
        <mxCell id="4lRJeKL5pvIg2zQoeAeS-11" value="App" style="shape=cylinder3;whiteSpace=wrap;html=1;boundedLbl=1;backgroundOutline=1;size=15;" parent="1" vertex="1">
          <mxGeometry x="110" y="380" width="70" height="80" as="geometry" />
        </mxCell>
        <mxCell id="4lRJeKL5pvIg2zQoeAeS-13" style="edgeStyle=orthogonalEdgeStyle;rounded=0;orthogonalLoop=1;jettySize=auto;html=1;exitX=1;exitY=0.5;exitDx=0;exitDy=0;exitPerimeter=0;entryX=0;entryY=0;entryDx=0;entryDy=75;entryPerimeter=0;" parent="1" source="4lRJeKL5pvIg2zQoeAeS-8" target="4lRJeKL5pvIg2zQoeAeS-7" edge="1">
          <mxGeometry relative="1" as="geometry">
            <mxPoint x="270" y="220" as="targetPoint" />
          </mxGeometry>
        </mxCell>
        <mxCell id="4lRJeKL5pvIg2zQoeAeS-14" style="edgeStyle=orthogonalEdgeStyle;rounded=0;orthogonalLoop=1;jettySize=auto;html=1;entryX=0;entryY=0;entryDx=0;entryDy=75;entryPerimeter=0;" parent="1" source="4lRJeKL5pvIg2zQoeAeS-11" target="4lRJeKL5pvIg2zQoeAeS-7" edge="1">
          <mxGeometry relative="1" as="geometry">
            <mxPoint x="300" y="260" as="targetPoint" />
          </mxGeometry>
        </mxCell>
        <mxCell id="4lRJeKL5pvIg2zQoeAeS-17" style="edgeStyle=orthogonalEdgeStyle;rounded=0;orthogonalLoop=1;jettySize=auto;html=1;entryX=1;entryY=0;entryDx=0;entryDy=195;entryPerimeter=0;" parent="1" source="4lRJeKL5pvIg2zQoeAeS-16" target="4lRJeKL5pvIg2zQoeAeS-7" edge="1">
          <mxGeometry relative="1" as="geometry">
            <Array as="points">
              <mxPoint x="520" y="365" />
              <mxPoint x="520" y="355" />
            </Array>
          </mxGeometry>
        </mxCell>
        <mxCell id="4lRJeKL5pvIg2zQoeAeS-16" value="Excel" style="sketch=0;pointerEvents=1;shadow=0;dashed=0;html=1;strokeColor=none;fillColor=#505050;labelPosition=center;verticalLabelPosition=bottom;verticalAlign=top;outlineConnect=0;align=center;shape=mxgraph.office.services.excel_services;" parent="1" vertex="1">
          <mxGeometry x="590" y="340" width="60" height="49" as="geometry" />
        </mxCell>
        <mxCell id="4lRJeKL5pvIg2zQoeAeS-19" value="CRM" style="shape=cylinder3;whiteSpace=wrap;html=1;boundedLbl=1;backgroundOutline=1;size=15;" parent="1" vertex="1">
          <mxGeometry x="110" y="490" width="70" height="80" as="geometry" />
        </mxCell>
        <mxCell id="4lRJeKL5pvIg2zQoeAeS-20" value="" style="outlineConnect=0;dashed=0;verticalLabelPosition=bottom;verticalAlign=top;align=center;html=1;shape=mxgraph.aws3.mysql_db_instance_2;fillColor=#2E73B8;gradientColor=none;" parent="1" vertex="1">
          <mxGeometry x="590" y="192" width="60" height="63" as="geometry" />
        </mxCell>
        <mxCell id="4lRJeKL5pvIg2zQoeAeS-21" style="edgeStyle=orthogonalEdgeStyle;rounded=0;orthogonalLoop=1;jettySize=auto;html=1;entryX=1;entryY=0;entryDx=0;entryDy=195;entryPerimeter=0;" parent="1" source="4lRJeKL5pvIg2zQoeAeS-20" target="4lRJeKL5pvIg2zQoeAeS-7" edge="1">
          <mxGeometry relative="1" as="geometry">
            <Array as="points">
              <mxPoint x="520" y="224" />
              <mxPoint x="520" y="355" />
            </Array>
          </mxGeometry>
        </mxCell>
        <mxCell id="_b4ZvS_Bz2sJnUdqVEeN-1" value="DWH" style="text;html=1;strokeColor=none;fillColor=none;align=center;verticalAlign=middle;whiteSpace=wrap;rounded=0;" vertex="1" parent="1">
          <mxGeometry x="350" y="192" width="60" height="30" as="geometry" />
        </mxCell>
        <mxCell id="_b4ZvS_Bz2sJnUdqVEeN-2" value="" style="endArrow=none;html=1;rounded=0;exitX=0;exitY=0.5;exitDx=0;exitDy=0;exitPerimeter=0;entryX=1;entryY=0.5;entryDx=0;entryDy=0;entryPerimeter=0;" edge="1" parent="1" source="4lRJeKL5pvIg2zQoeAeS-7" target="4lRJeKL5pvIg2zQoeAeS-7">
          <mxGeometry width="50" height="50" relative="1" as="geometry">
            <mxPoint x="360" y="320" as="sourcePoint" />
            <mxPoint x="410" y="270" as="targetPoint" />
          </mxGeometry>
        </mxCell>
        <mxCell id="_b4ZvS_Bz2sJnUdqVEeN-4" value="Staging" style="text;html=1;strokeColor=none;fillColor=none;align=center;verticalAlign=middle;whiteSpace=wrap;rounded=0;" vertex="1" parent="1">
          <mxGeometry x="350" y="260" width="60" height="30" as="geometry" />
        </mxCell>
        <mxCell id="_b4ZvS_Bz2sJnUdqVEeN-5" value="Busines Layer" style="text;html=1;strokeColor=none;fillColor=none;align=center;verticalAlign=middle;whiteSpace=wrap;rounded=0;" vertex="1" parent="1">
          <mxGeometry x="350" y="305" width="60" height="30" as="geometry" />
        </mxCell>
        <mxCell id="_b4ZvS_Bz2sJnUdqVEeN-7" value="Busines Intelligence" style="shape=cylinder3;whiteSpace=wrap;html=1;boundedLbl=1;backgroundOutline=1;size=15;" vertex="1" parent="1">
          <mxGeometry x="585" y="480" width="70" height="80" as="geometry" />
        </mxCell>
        <mxCell id="_b4ZvS_Bz2sJnUdqVEeN-8" style="edgeStyle=orthogonalEdgeStyle;rounded=0;orthogonalLoop=1;jettySize=auto;html=1;entryX=1;entryY=0;entryDx=0;entryDy=195;entryPerimeter=0;" edge="1" parent="1" source="_b4ZvS_Bz2sJnUdqVEeN-7" target="4lRJeKL5pvIg2zQoeAeS-7">
          <mxGeometry relative="1" as="geometry">
            <Array as="points">
              <mxPoint x="520" y="520" />
              <mxPoint x="520" y="355" />
            </Array>
          </mxGeometry>
        </mxCell>
        <mxCell id="_b4ZvS_Bz2sJnUdqVEeN-9" style="edgeStyle=orthogonalEdgeStyle;rounded=0;orthogonalLoop=1;jettySize=auto;html=1;entryX=0;entryY=0;entryDx=0;entryDy=75;entryPerimeter=0;" edge="1" parent="1" source="4lRJeKL5pvIg2zQoeAeS-19" target="4lRJeKL5pvIg2zQoeAeS-7">
          <mxGeometry relative="1" as="geometry" />
        </mxCell>
      </root>
    </mxGraphModel>
  </diagram>
</mxfile>
